<svg xmlns="http://www.w3.org/2000/svg" viewBox="0 0 48 48">
      <defs>
        <style>
          .cls-3 {
            fill: #9dcc6b;
          }
          .cls-6 {
            fill: #b5e08c;
          }
          .cls-7 {
            fill: #7c7d7d;
          }
          .cls-8 {
            fill: #919191;
          }
        </style>
      </defs>
      <g id="_15._Earth_with_Moon" data-name="15. Earth with Moon">
        <circle cx="25" cy="27" r="20" style="fill: #9fdbf3" />
        <path
          d="M45 27a19.92 19.92 0 0 1-7.47 15.58A19.89 19.89 0 0 1 28 45C9.13 45 .85 21.18 15.47 9.42A20 20 0 0 1 45 27z"
          style="fill: #b2e5fb"
        />
        <path
          class="cls-3"
          d="M23.62 38.74a2.94 2.94 0 0 0-2.25 2.76c-.08.73-1.41 1.7-2.46-1.46-.87-2.61-3.57-2.79-4.34-4.34-.87-1.74 0-5.22 3.47-4.35 0 0 2.61.87 3.48 2.61s3.54 0 4.35 1.74-.55 2.67-2.25 3.04zM39.78 26.77c-.61 1.85.87 6.09-.87 8.7-1 1.48-3.39 2.43-4.23 1.43-.65-.75-.87-2.15-.11-4s.86-4.35-1.74-5.22-5.22.87-6.09-3.47c-.54-2.7 2.1-3.85 3.48-5.22 2.61-2.61 0-3.48.87-6.09.52-1.57 2.62-2.51 4.21-3a19.92 19.92 0 0 1 9.22 12.81c-1.79.52-4.06 2.02-4.74 4.06z"
        />
        <path d="M27 13a12 12 0 0 1-24 0A11.88 11.88 0 0 1 9.93 2.11 12 12 0 0 1 27 13z" style="fill: #dad7e5" />
        <path
          d="M23.07 21.89C11.13 27.39-.28 12.32 9.93 2.11c11.86-5.47 23.39 9.53 13.14 19.78z"
          style="fill: #edebf2"
        />
        <path
          class="cls-3"
          d="M14.11 25c-.09 1.2-.22 2.38-1.28 2.91-1.74.87-6.83 1.13-7-6.09-.13-.35-.14-.16.08-.89a12 12 0 0 0 8.2 4.07z"
        />
        <path class="cls-6" d="M13.73 24.92c-1.05 2.34-6 1.53-5.61-2.08a11.9 11.9 0 0 0 5.61 2.08z" />
        <path class="cls-7" d="M11 13a2 2 0 1 1-2.82-1.82A2 2 0 0 1 11 13z" />
        <path class="cls-8" d="M10.82 13.82a2 2 0 0 1-2.64-2.64 2 2 0 0 1 2.64 2.64z" />
        <path class="cls-7" d="M22 9a2 2 0 0 1-4 0 2 2 0 0 1 4 0zM20 17a3 3 0 1 1-3.87-2.87A3 3 0 0 1 20 17z" />
        <path class="cls-8" d="M19.87 17.87a3 3 0 0 1-3.74-3.74 3 3 0 0 1 3.74 3.74z" />
        <path class="cls-7" d="M15 5a3 3 0 0 1-2.93-3.64 12 12 0 0 1 5.86 0A3 3 0 0 1 15 5z" />
        <path
          class="cls-8"
          d="M17.87 2.87A3 3 0 0 1 14.19 1a11.84 11.84 0 0 1 3.74.34 3 3 0 0 1-.06 1.53zM14 11a1 1 0 1 1 .2-2 1 1 0 0 1-.2 2zM10 20a1 1 0 1 1 .71-1.71A1 1 0 0 1 10 20z"
        />
        <path
          class="cls-6"
          d="M26.12 36.62c.13 1.77-2.45 2.06-2.59 2.15-1.53.37-1.51 1.46-1.75 1.06a7.46 7.46 0 0 1-.87-1.83c-1.16-3.49-5.66-2.67-4.52-6.77 1.93-.37 4.45 1.33 5.13 2.69.98 2 4.48-.47 4.6 2.7zM44.52 22.67c-2 .64-4.09 2.17-4.74 4.1-.57 1.72.67 5.51-.56 8.13-2.87 1.46-3.8-1.19-2.65-4 .72-1.81.86-4.35-1.74-5.22s-5.22.87-6.09-3.47a3.05 3.05 0 0 1 .39-2.29A8.67 8.67 0 0 0 31 18c4.52-3.57 1.06-4.1 2.06-7.1.1-.3 1.9-.91 2.21-1a19.92 19.92 0 0 1 9.25 12.77z"
        />
        <path class="cls-8" d="M21.82 9.82a2 2 0 0 1-2.64-2.64 2 2 0 0 1 2.64 2.64z" />
    </g>
</svg>